<?xml version="1.0" encoding="utf-8"?>
<!-- Svg Vector Icons : http://www.onlinewebfonts.com/icon -->
<!DOCTYPE svg PUBLIC "-//W3C//DTD SVG 1.1//EN" "http://www.w3.org/Graphics/SVG/1.1/DTD/svg11.dtd">
<svg version="1.1" xmlns="http://www.w3.org/2000/svg" xmlns:xlink="http://www.w3.org/1999/xlink" x="0px" y="0px" viewBox="0 0 256 256" enable-background="new 0 0 256 256" xml:space="preserve">
<metadata> Svg Vector Icons : http://www.onlinewebfonts.com/icon </metadata>
<g><g><path fill="#b6f177" d="M124.7,124.7L124.7,124.7L124.7,124.7L124.7,124.7c-22.8,9.4-45.5,18.9-68.3,28.1c-10.8,4.1-22.2,13-20.9,25.8c0.6,18.2,25.4,29,38.4,15.7c12.4-14.2,13.8-34.4,24.5-49.5c5.1-4.8,12.4-6.4,18.8-9.1c-5.8,20.4-14.3,40.1-23.3,59.3c-8.5,19-33.5,27.3-51.8,18.1c-17.9-8-28-30.1-21-48.7c4.5-14.3,18-22.8,31.2-28c20-7.9,39.9-16.2,59.8-24.5c8.3-19.9,16.5-39.8,24.5-59.8c5.2-13.2,13.6-26.7,27.9-31.2c18.6-7,40.7,3.2,48.7,21c9.2,18.4,0.8,43.4-18.1,51.8c-19.2,9-38.8,17.5-59.3,23.3c2.7-6.4,4.2-13.6,9.1-18.7c15.1-10.7,35.4-12.2,49.5-24.5c13.2-13,2.5-37.8-15.7-38.4c-12.8-1.3-21.7,10.1-25.8,20.9"/><path fill="#b6f177" d="M179.2,222.7c4.6,1.9,9.3,3.8,13.9,5.8c4.5-17.3,18-30.8,35.3-35.3c-1.9-4.6-3.9-9.3-5.8-13.9C201.8,185.4,185.3,201.8,179.2,222.7z"/><path fill="#b6f177" d="M150,213.6c4.2,2.1,8.5,4,12.8,5.8c8.6-26.8,29.8-47.9,56.5-56.6c-1.8-4.3-3.6-8.7-5.8-12.8C183.7,160.1,160.1,183.8,150,213.6z"/><path fill="#b6f177" d="M209.7,232.2c12,4.9,24,9.7,36.3,13.8c-4.2-12.3-9-24.3-13.9-36.3C220.4,211.2,211.1,220.5,209.7,232.2z"/><path fill="#b6f177" d="M204.2,135.9c-16-13.1-40.6-14-57.5-2c-20.1,13-27.2,41.5-15.9,62.5c1.4,2.9,3.2,5.4,5.1,7.8C148.6,173.4,173.3,148.6,204.2,135.9z"/><path fill="#b6f177" d="M53.2,53.3c-18.2,18.2-18.2,47.6,0,65.8L119,53.3C100.9,35.1,71.4,35.1,53.2,53.3z"/><path fill="#b6f177" d="M60.4,17c-2.2,0.8-4,7.4-4,14.8c0,7.4,3.8,18.1,8.5,23.8c4.7,5.7,10.3,9.7,12.5,8.9c2.2-0.8,0.1-6.1-4.6-11.8C68,47,64.2,36.4,64.2,29C64.3,21.6,62.5,16.2,60.4,17z"/><path fill="#b6f177" d="M68.7,15.7c1.6,4.4-0.7,9.3-5.2,10.9c-4.5,1.6-9.3-0.7-10.9-5.2c-1.6-4.4,0.7-9.3,5.2-10.9C62.3,8.9,67.2,11.3,68.7,15.7z"/><path fill="#b6f177" d="M16.9,60.4c0.8-2.2,7.4-4,14.8-4c7.4,0,18.1,3.8,23.8,8.5c5.7,4.7,9.7,10.3,9,12.5c-0.8,2.2-6.1,0.1-11.8-4.6C47,68,36.3,64.2,28.9,64.3C21.6,64.3,16.2,62.5,16.9,60.4z"/><path fill="#b6f177" d="M15.7,68.8c4.4,1.6,9.3-0.7,10.9-5.2c1.6-4.5-0.7-9.3-5.2-10.9c-4.4-1.6-9.3,0.7-10.9,5.2S11.2,67.2,15.7,68.8z"/></g></g>
</svg>